<svg width="24" height="22" viewBox="0 0 24 22" fill="none" xmlns="http://www.w3.org/2000/svg">
<path d="M23.7 6.8C23.4 5.09375 22.5 3.9125 20.4 3.65C17.1 3.125 12 3.125 12 3.125C12 3.125 6.9 3.125 3.6 3.65C1.5 3.9125 0.45 5.09375 0.3 6.8C0 8.50625 0 11 0 11C0 11 0 13.4937 0.3 15.2C0.6 16.9062 1.5 18.0875 3.6 18.35C6.9 18.875 12 18.875 12 18.875C12 18.875 17.1 18.875 20.4 18.35C22.5 17.9563 23.4 16.9062 23.7 15.2C24 13.4937 24 11 24 11C24 11 24 8.50625 23.7 6.8ZM9 14.9375V7.0625L16.5 11L9 14.9375Z" fill="black"/>
</svg>
